<svg xmlns="http://www.w3.org/2000/svg" width="836" height="150" viewBox="0 0 836 150">
  <defs>
    <style>
      .cls-1 {
        fill:#eaf6f8 ;
      }

      .cls-1, .cls-2 {
        fill-rule: evenodd;
      }

      .cls-2 {
        fill: #4659c1;
      }
    </style>
  </defs>
  <path id="GYm" class="cls-1" d="M145.615,423.774q-0.213,3.966-.318,6.081l-0.741,13.009,11.254-.1q1.273,0,8.175.317l-1.208,22.951a87.327,87.327,0,0,1-20.658,2.75,46.721,46.721,0,0,1-20.551-4.442,28.1,28.1,0,0,1-13.454-12.957,42.974,42.974,0,0,1-4.237-19.407,55.977,55.977,0,0,1,3.708-20.307,43.691,43.691,0,0,1,11.176-16.553,46.949,46.949,0,0,1,17.85-10.259,71.669,71.669,0,0,1,22.034-3.331q4.449,0,10.117.529t11.97,1.639q6.3,1.11,11.018,2.432t12.341,3.861q-1.379-18.932-1.377-34.374Q174.534,350,151.336,350q-31.781,0-51.855,10.735T68.707,389.876a77.958,77.958,0,0,0-10.7,39.873,80.564,80.564,0,0,0,3.973,25.173,64.013,64.013,0,0,0,11.282,21.047,52.119,52.119,0,0,0,18.275,14.066,94.387,94.387,0,0,0,24.844,7.51,170.9,170.9,0,0,0,28.287,2.327q8.791,0,20.022-.794t19.229-1.8q8-1,20.182-3.225,0.318-13.538,1.744-40.085t2.8-41.037q-12.713.213-35.17,0.211-13.137,0-27.649-.211Q145.827,419.809,145.615,423.774ZM283.968,496.91q8.157,0,23.1.212,0.421-19.25,1.162-35.22l0.74-16.076,0.106-1.058V443.71l0.106-1.057q0-.953,13.877-21.47l46.505-68.43q-17.291.213-23.863,0.211-12.41,0-25.88-.211-3.177,5.922-10.588,17.922t-19.588,33.463q-4.554-11.524-11.81-26.169T266.34,352.753q-13.866.213-23.817,0.211-10.372,0-26.356-.211l48.518,86.3q0,8.463-1.483,28.979t-2.542,29.086q14.935-.212,23.308-0.212h0Zm102.647,0q4.024,0,18.645.212l0.321-13.538,3.524-60.075,2.67-29.3q1.167,6.664,1.7,9.308t0.957,4.442l7.644,30.989,13.059,58.171q13.559-.212,20.128-0.212,5.189,0,18.962.212l19.947-60.075L508.069,394q0.211,7.722.212,12.057,0,9.944-1.291,45.743t-2.152,45.321q11.863-.212,20.022-0.212,5.613,0,19.6.212-0.213-10.258-.211-14.173,0-18.824,1.377-68.958,0.636-25.594,2.648-61.238-18.432.213-28.814,0.211-15.255,0-31.145-.211-2.654,9.732-4.192,14.437t-7.27,19.936q-5.73,15.231-9.551,27.182t-8.489,28.556q-4.543-24.217-6.815-34.215t-6.022-23.691q-3.752-13.7-4.7-18.4t-2.324-13.8q-19.031.213-28.28,0.211-11.164,0-30.726-.211l-3.255,48.863-6.514,74.141-2.625,21.365q13.558-.212,19.068-0.212h0Z" transform="translate(-58 -350)"/>
  <path id="BO" class="cls-2" d="M590.069,497.135l27.861,0.106q16.313,0,30.88-.423a192.984,192.984,0,0,0,20.075-1.269,50.766,50.766,0,0,0,13.241-4.231,33.966,33.966,0,0,0,10.488-7.4,35.892,35.892,0,0,0,7.415-12.163,42.856,42.856,0,0,0,2.649-15.125,39.139,39.139,0,0,0-1.536-11.052,30.694,30.694,0,0,0-4.609-9.466,29.434,29.434,0,0,0-6.938-6.928,31.575,31.575,0,0,0-7.257-3.913,54.607,54.607,0,0,0-9-2.168,58.723,58.723,0,0,0,8.951-3.173,34.062,34.062,0,0,0,6.833-4.442,31.2,31.2,0,0,0,6.3-7.139,34.832,34.832,0,0,0,4.343-9.784,42.692,42.692,0,0,0,1.536-11.528,39.431,39.431,0,0,0-2.648-14.49,30.142,30.142,0,0,0-6.462-10.153,31.029,31.029,0,0,0-9.271-6.029,47.435,47.435,0,0,0-12.977-3.384,164.7,164.7,0,0,0-18.858-.741q-11.019,0-26.379.476t-26.909.476q-8.264,0-22.354-.317,0.1,8.463.106,13.115,0,13.008-1,44.738t-2.062,49.921q-0.743,13.327-2.963,36.595Zm27.967-116.341H637.1q8.474,0,12.606,1.481a11,11,0,0,1,5.986,4.547,13.252,13.252,0,0,1,1.854,6.981,17.564,17.564,0,0,1-.9,5.5,12.7,12.7,0,0,1-3.075,4.971,12.4,12.4,0,0,1-5.144,3.173,32.485,32.485,0,0,1-6.1,1.322,102.437,102.437,0,0,1-10.554.37h-15.06ZM615.593,437.8h22.355a50.969,50.969,0,0,1,10.6.793,14.726,14.726,0,0,1,5.721,2.592,11.3,11.3,0,0,1,3.5,4.442,15.088,15.088,0,0,1,1.166,6.134,18.065,18.065,0,0,1-1.432,7.3,13.024,13.024,0,0,1-3.872,5.182,19.11,19.11,0,0,1-7.1,3.067,53.6,53.6,0,0,1-11.876.952h-20.36ZM762.9,359.958q-21.133,9.837-31.886,27.34t-10.752,40.667a77.552,77.552,0,0,0,5.085,28.662q5.083,12.906,17.214,23.427a74.021,74.021,0,0,0,28.549,15.23,123.978,123.978,0,0,0,34.323,4.707,125.552,125.552,0,0,0,34.852-4.812A75.68,75.68,0,0,0,869.1,480a68.55,68.55,0,0,0,18.486-25.225A81.526,81.526,0,0,0,894,422.148q0-16.922-5.826-29.932a64.857,64.857,0,0,0-17.586-23,73.327,73.327,0,0,0-27.437-14.543,116.561,116.561,0,0,0-32.627-4.548Q784.034,350.122,762.9,359.958Zm66.474,27.287a34.5,34.5,0,0,1,13.983,14.86,46.208,46.208,0,0,1,4.767,20.889,50.56,50.56,0,0,1-5.137,22.264,38.094,38.094,0,0,1-14.937,16.5,41.172,41.172,0,0,1-21.558,5.87,43.829,43.829,0,0,1-20.869-5.236,33.952,33.952,0,0,1-14.672-14.542,43.935,43.935,0,0,1-4.82-20.519,50.4,50.4,0,0,1,5.3-22.792,39.665,39.665,0,0,1,15.149-16.605,41.656,41.656,0,0,1,22.034-5.976A40.98,40.98,0,0,1,829.375,387.245Z" transform="translate(-58 -350)"/>
</svg>
